<mxfile host="Electron" modified="2024-07-01T09:39:13.305Z" agent="Mozilla/5.0 (X11; Linux x86_64) AppleWebKit/537.36 (KHTML, like Gecko) draw.io/24.5.3 Chrome/124.0.6367.207 Electron/30.0.6 Safari/537.36" etag="v9lVggrylm1L_Q4Ib5OH" version="24.5.3" type="device">
  <diagram name="Page-1" id="Mv72YUwYb0mtkW0FlEv9">
    <mxGraphModel dx="1564" dy="916" grid="1" gridSize="10" guides="1" tooltips="1" connect="1" arrows="1" fold="1" page="1" pageScale="1" pageWidth="850" pageHeight="1100" math="0" shadow="0">
      <root>
        <mxCell id="0" />
        <mxCell id="1" parent="0" />
        <mxCell id="iAEeZ9S-SYxDuShbFOno-31" value="" style="endArrow=none;html=1;rounded=0;strokeWidth=3;endFill=0;startArrow=block;startFill=0;" parent="1" edge="1">
          <mxGeometry width="50" height="50" relative="1" as="geometry">
            <mxPoint x="70" y="289.76" as="sourcePoint" />
            <mxPoint x="140" y="289.76" as="targetPoint" />
          </mxGeometry>
        </mxCell>
        <mxCell id="iAEeZ9S-SYxDuShbFOno-32" value="&lt;font style=&quot;font-size: 20px;&quot; face=&quot;Titillium Web&quot;&gt;inheriting from&lt;/font&gt;" style="text;html=1;align=center;verticalAlign=middle;whiteSpace=wrap;rounded=0;" parent="1" vertex="1">
          <mxGeometry x="140" y="280" width="130" height="20" as="geometry" />
        </mxCell>
        <mxCell id="1YCrOTnC6zrJHs__HTJA-14" value="&lt;font face=&quot;Titillium Web&quot; style=&quot;font-size: 20px;&quot;&gt;class name&lt;/font&gt;" style="swimlane;fontStyle=1;align=center;verticalAlign=top;childLayout=stackLayout;horizontal=1;startSize=40;horizontalStack=0;resizeParent=1;resizeParentMax=0;resizeLast=0;collapsible=1;marginBottom=0;whiteSpace=wrap;html=1;fillColor=#009999;fontColor=#ffffff;fontFamily=Titillium Web;strokeWidth=2;" parent="1" vertex="1">
          <mxGeometry x="310" y="250" width="180" height="196" as="geometry">
            <mxRectangle x="790" y="120" width="80" height="30" as="alternateBounds" />
          </mxGeometry>
        </mxCell>
        <mxCell id="1YCrOTnC6zrJHs__HTJA-15" value="&lt;span style=&quot;border-color: var(--border-color); color: rgb(0, 0, 0); font-family: &amp;quot;Titillium Web&amp;quot;; font-style: normal; font-variant-ligatures: normal; font-variant-caps: normal; letter-spacing: normal; orphans: 2; text-align: left; text-indent: 0px; text-transform: none; widows: 2; word-spacing: 0px; -webkit-text-stroke-width: 0px; background-color: rgb(251, 251, 251); text-decoration-thickness: initial; text-decoration-style: initial; text-decoration-color: initial; font-size: 16px;&quot;&gt;&lt;b style=&quot;font-weight: bold; border-color: var(--border-color);&quot;&gt;&lt;b style=&quot;border-color: var(--border-color);&quot;&gt;&lt;div style=&quot;font-weight: 400;&quot;&gt;&lt;br&gt;&lt;/div&gt;&lt;div style=&quot;font-weight: 400;&quot;&gt;attributes:&lt;br&gt;&lt;/div&gt;&lt;div style=&quot;font-weight: 400;&quot;&gt;&lt;span style=&quot;white-space: pre;&quot;&gt;&#x9;&lt;/span&gt;definitions&lt;br&gt;&lt;/div&gt;&lt;div style=&quot;font-weight: 400;&quot;&gt;&lt;span style=&quot;white-space: pre;&quot;&gt;&#x9;&lt;/span&gt;quantities&lt;br&gt;&lt;/div&gt;&lt;/b&gt;&lt;/b&gt;&lt;/span&gt;" style="text;strokeColor=none;fillColor=none;align=left;verticalAlign=top;spacingLeft=4;spacingRight=4;overflow=hidden;rotatable=0;points=[[0,0.5],[1,0.5]];portConstraint=eastwest;whiteSpace=wrap;html=1;fontFamily=Titillium Web;" parent="1YCrOTnC6zrJHs__HTJA-14" vertex="1">
          <mxGeometry y="40" width="180" height="110" as="geometry" />
        </mxCell>
        <mxCell id="1YCrOTnC6zrJHs__HTJA-16" value="" style="line;strokeWidth=1;fillColor=none;align=left;verticalAlign=middle;spacingTop=-1;spacingLeft=3;spacingRight=3;rotatable=0;labelPosition=right;points=[];portConstraint=eastwest;strokeColor=inherit;fontFamily=Titillium Web;" parent="1YCrOTnC6zrJHs__HTJA-14" vertex="1">
          <mxGeometry y="150" width="180" height="8" as="geometry" />
        </mxCell>
        <mxCell id="1YCrOTnC6zrJHs__HTJA-17" value="&lt;div style=&quot;font-size: 16px;&quot;&gt;&lt;span style=&quot;background-color: initial;&quot;&gt;methods / class functions&lt;/span&gt;&lt;br&gt;&lt;/div&gt;" style="text;strokeColor=none;fillColor=none;align=left;verticalAlign=top;spacingLeft=4;spacingRight=4;overflow=hidden;rotatable=0;points=[[0,0.5],[1,0.5]];portConstraint=eastwest;whiteSpace=wrap;html=1;fontFamily=Titillium Web;" parent="1YCrOTnC6zrJHs__HTJA-14" vertex="1">
          <mxGeometry y="158" width="180" height="38" as="geometry" />
        </mxCell>
        <mxCell id="WAi-lAO25pJpfpIzIFvC-1" value="" style="endArrow=none;html=1;rounded=0;strokeWidth=3;endFill=0;startArrow=diamond;startFill=1;" edge="1" parent="1">
          <mxGeometry width="50" height="50" relative="1" as="geometry">
            <mxPoint x="70" y="347.76" as="sourcePoint" />
            <mxPoint x="140" y="347.76" as="targetPoint" />
          </mxGeometry>
        </mxCell>
        <mxCell id="WAi-lAO25pJpfpIzIFvC-2" value="&lt;font style=&quot;font-size: 20px;&quot; face=&quot;Titillium Web&quot;&gt;contained in&lt;/font&gt;" style="text;html=1;align=center;verticalAlign=middle;whiteSpace=wrap;rounded=0;" vertex="1" parent="1">
          <mxGeometry x="140" y="338" width="110" height="20" as="geometry" />
        </mxCell>
        <mxCell id="WAi-lAO25pJpfpIzIFvC-3" value="" style="endArrow=none;html=1;rounded=0;strokeWidth=3;endFill=0;startArrow=classic;startFill=1;" edge="1" parent="1">
          <mxGeometry width="50" height="50" relative="1" as="geometry">
            <mxPoint x="70" y="410" as="sourcePoint" />
            <mxPoint x="140" y="410" as="targetPoint" />
          </mxGeometry>
        </mxCell>
        <mxCell id="WAi-lAO25pJpfpIzIFvC-4" value="&lt;font style=&quot;font-size: 20px;&quot; face=&quot;Titillium Web&quot;&gt;reference to&lt;/font&gt;" style="text;html=1;align=center;verticalAlign=middle;whiteSpace=wrap;rounded=0;" vertex="1" parent="1">
          <mxGeometry x="140" y="400" width="110" height="20" as="geometry" />
        </mxCell>
      </root>
    </mxGraphModel>
  </diagram>
</mxfile>
